HIERARCHY
ROOT hip
{
  OFFSET 0 0 0
  CHANNELS 6 Xposition Yposition Zposition Zrotation Yrotation Xrotation
  JOINT abdomen
  {
    OFFSET 0 20.6881 -0.73152
    CHANNELS 3 Zrotation Xrotation Yrotation
    JOINT chest
    {
      OFFSET 0 11.7043 -0.48768
      CHANNELS 3 Zrotation Xrotation Yrotation
      JOINT neck
      {
        OFFSET 0 22.1894 -2.19456
        CHANNELS 3 Zrotation Xrotation Yrotation
        JOINT head
        {
          OFFSET -0.24384 7.07133 1.2192
          CHANNELS 3 Zrotation Xrotation Yrotation
          JOINT leftEye
          {
            OFFSET 4.14528 8.04674 8.04672
            CHANNELS 3 Zrotation Xrotation Yrotation
            End Site
            {
              OFFSET 1 0 0
            }
          }
          JOINT rightEye
          {
            OFFSET -3.6576 8.04674 8.04672
            CHANNELS 3 Zrotation Xrotation Yrotation
            End Site
            {
              OFFSET 1 0 0
            }
          }
        }
      }
      JOINT rCollar
      {
        OFFSET -2.68224 19.2634 -4.8768
        CHANNELS 3 Zrotation Xrotation Yrotation
        JOINT rShldr
        {
          OFFSET -8.77824 -1.95073 1.46304
          CHANNELS 3 Zrotation Xrotation Yrotation
          JOINT rForeArm
          {
            OFFSET -28.1742 -1.7115 0.48768
            CHANNELS 3 Zrotation Xrotation Yrotation
            JOINT rHand
            {
              OFFSET -22.5879 0.773209 7.07136
              CHANNELS 3 Zrotation Xrotation Yrotation
              JOINT rThumb1
              {
                OFFSET -1.2192 -0.487915 3.41376
                CHANNELS 3 Zrotation Xrotation Yrotation
                JOINT rThumb2
                {
                  OFFSET -3.37035 -0.52449 3.41376
                  CHANNELS 3 Zrotation Xrotation Yrotation
                  End Site
                  {
                    OFFSET -1.78271 -1.18214 1.43049
                  }
                }
              }
              JOINT rIndex1
              {
                OFFSET -7.75947 0.938293 5.60832
                CHANNELS 3 Zrotation Xrotation Yrotation
                JOINT rIndex2
                {
                  OFFSET -2.54057 -0.884171 1.56538
                  CHANNELS 3 Zrotation Xrotation Yrotation
                  End Site
                  {
                    OFFSET -1.62519 -0.234802 1.16502
                  }
                }
              }
              JOINT rMid1
              {
                OFFSET -8.24714 1.18213 3.41376
                CHANNELS 3 Zrotation Xrotation Yrotation
                JOINT rMid2
                {
                  OFFSET -3.10165 -0.590103 1.0647
                  CHANNELS 3 Zrotation Xrotation Yrotation
                  End Site
                  {
                    OFFSET -2.48547 -0.328903 0.83742
                  }
                }
              }
              JOINT rRing1
              {
                OFFSET -8.82822 0.546677 1.51678
                CHANNELS 3 Zrotation Xrotation Yrotation
                JOINT rRing2
                {
                  OFFSET -2.60934 -0.819778 -0.0198488
                  CHANNELS 3 Zrotation Xrotation Yrotation
                  End Site
                  {
                    OFFSET -2.33842 -0.294052 0.168128
                  }
                }
              }
              JOINT rPinky1
              {
                OFFSET -8.27202 -0.0477905 -0.4584
                CHANNELS 3 Zrotation Xrotation Yrotation
                JOINT rPinky2
                {
                  OFFSET -1.82734 -0.647385 -0.700984
                  CHANNELS 3 Zrotation Xrotation Yrotation
                  End Site
                  {
                    OFFSET -1.69225 -0.51767 -0.607171
                  }
                }
              }
            }
          }
        }
      }
      JOINT lCollar
      {
        OFFSET 2.68224 19.2634 -4.8768
        CHANNELS 3 Zrotation Xrotation Yrotation
        JOINT lShldr
        {
          OFFSET 8.77824 -1.95073 1.46304
          CHANNELS 3 Zrotation Xrotation Yrotation
          JOINT lForeArm
          {
            OFFSET 28.1742 -1.7115 0.48768
            CHANNELS 3 Zrotation Xrotation Yrotation
            JOINT lHand
            {
              OFFSET 22.5879 0.773209 7.07136
              CHANNELS 3 Zrotation Xrotation Yrotation
              JOINT lThumb1
              {
                OFFSET 1.2192 -0.487915 3.41376
                CHANNELS 3 Zrotation Xrotation Yrotation
                JOINT lThumb2
                {
                  OFFSET 3.37035 -0.52449 3.41376
                  CHANNELS 3 Zrotation Xrotation Yrotation
                  End Site
                  {
                    OFFSET 1.78271 -1.18214 1.43049
                  }
                }
              }
              JOINT lIndex1
              {
                OFFSET 7.75947 0.938293 5.60832
                CHANNELS 3 Zrotation Xrotation Yrotation
                JOINT lIndex2
                {
                  OFFSET 2.54057 -0.884171 1.56538
                  CHANNELS 3 Zrotation Xrotation Yrotation
                  End Site
                  {
                    OFFSET 1.62519 -0.234802 1.16502
                  }
                }
              }
              JOINT lMid1
              {
                OFFSET 8.24714 1.18213 3.41376
                CHANNELS 3 Zrotation Xrotation Yrotation
                JOINT lMid2
                {
                  OFFSET 3.10165 -0.590103 1.0647
                  CHANNELS 3 Zrotation Xrotation Yrotation
                  End Site
                  {
                    OFFSET 2.48547 -0.328903 0.83742
                  }
                }
              }
              JOINT lRing1
              {
                OFFSET 8.82822 0.546677 1.51678
                CHANNELS 3 Zrotation Xrotation Yrotation
                JOINT lRing2
                {
                  OFFSET 2.60934 -0.819778 -0.0198488
                  CHANNELS 3 Zrotation Xrotation Yrotation
                  End Site
                  {
                    OFFSET 2.33842 -0.294052 0.168128
                  }
                }
              }
              JOINT lPinky1
              {
                OFFSET 8.27202 -0.0477905 -0.4584
                CHANNELS 3 Zrotation Xrotation Yrotation
                JOINT lPinky2
                {
                  OFFSET 1.82734 -0.647385 -0.700984
                  CHANNELS 3 Zrotation Xrotation Yrotation
                  End Site
                  {
                    OFFSET 1.69225 -0.51767 -0.607171
                  }
                }
              }
            }
          }
        }
      }
    }
  }
  JOINT rButtock
  {
    OFFSET -8.77824 4.35084 1.2192
    CHANNELS 3 Zrotation Xrotation Yrotation
    JOINT rThigh
    {
      OFFSET 0 -1.70687 -2.19456
      CHANNELS 3 Zrotation Xrotation Yrotation
      JOINT rShin
      {
        OFFSET 0 -36.8199 0.73152
        CHANNELS 3 Zrotation Xrotation Yrotation
        JOINT rFoot
        {
          OFFSET 0.73152 -45.1104 -5.12064
          CHANNELS 3 Zrotation Xrotation Yrotation
          End Site
          {
            OFFSET -1.1221 -3.69964 12.103
          }
        }
      }
    }
  }
  JOINT lButtock
  {
    OFFSET 8.77824 4.35084 1.2192
    CHANNELS 3 Zrotation Xrotation Yrotation
    JOINT lThigh
    {
      OFFSET 0 -1.70687 -2.19456
      CHANNELS 3 Zrotation Xrotation Yrotation
      JOINT lShin
      {
        OFFSET 0 -36.8199 0.73152
        CHANNELS 3 Zrotation Xrotation Yrotation
        JOINT lFoot
        {
          OFFSET -0.73152 -45.1104 -5.12064
          CHANNELS 3 Zrotation Xrotation Yrotation
          End Site
          {
            OFFSET 1.1221 -3.69964 12.103
          }
        }
      }
    }
  }
}
MOTION
Frames:	6
Frame Time:	0.03333333333333333
96.6624 79.8874 -61.441993 187.933 125.19400000000002 191.222 1.93458 -10.5366 -9.44073 2.82846 -1.09937 -2.76991 0.678436 6.70914 5.197 -21.5334 2.96451 11.6966 -0.0 0.0 0.0 -0.0 0.0 0.0 -1.39591e-13 4.87166e-13 -3.67883e-13 57.075300000000006 5.15037 32.5463 -26.233300000000003 -24.0496 57.7401 -0.341935 -16.3375 -2.36173 -7.10894e-11 -4.301070000000001e-09 1.7203200000000001e-09 -1.48229e-10 -7.52979e-09 2.9744400000000003e-09 -7.10731e-11 -4.30105e-09 1.7203e-09 7.730910000000001 5.47488 0.417314 -7.10883e-11 -4.30108e-09 1.7203200000000001e-09 2.9055400000000002 0.965183 0.102902 -7.10824e-11 -4.30108e-09 1.7203200000000001e-09 10.2786 0.731801 0.0259123 -7.10981e-11 -4.30108e-09 1.7203300000000002e-09 2.22167 -0.733487 -0.20892 -1.39675e-13 4.87187e-13 -3.6814100000000006e-13 -6.37017 -28.5369 -83.4765 24.8437 -20.7685 -52.5128 5.51416 -53.5442 10.9378 1.74706e-10 7.76693e-10 -1.20405e-09 3.55466e-10 1.22728e-09 -2.05887e-09 1.74702e-10 7.76692e-10 -1.20405e-09 -7.730910000000001 5.47488 -0.417314 1.74705e-10 7.76698e-10 -1.20406e-09 -2.9055400000000002 0.965183 -0.102902 1.74699e-10 7.76694e-10 -1.20406e-09 -10.2786 0.731801 -0.0259123 1.74712e-10 7.76695e-10 -1.20406e-09 -2.22167 -0.733487 0.20892 -2.03217e-16 0.0 -3.88251e-19 -11.6489 -34.5248 -2.33129 -2.84817 74.3509 3.37443 -1.33196 0.642285 -8.32844 2.03217e-16 0.0 3.88251e-19 -7.453009999999999 -22.9945 -4.59913 0.23816000000000004 36.1282 -0.63796 3.86107 -20.7095 8.38738
98.14760000000001 80.7279 -60.995492999999996 187.343 126.28 191.487 2.22262 -10.788 -11.1695 3.47152 -1.17325 -3.24037 0.834363 6.90232 6.00948 -22.4831 1.98606 13.0944 -0.0 0.0 0.0 -0.0 0.0 0.0 1.64113e-13 -8.87542e-14 4.62125e-13 57.2091 7.891020000000001 31.9897 -26.5896 -25.0576 59.39620000000001 -0.241086 -13.8659 -1.98787 -2.14074e-09 -1.25031e-08 2.07812e-09 -3.71634e-09 -2.16332e-08 3.5750899999999995e-09 -2.14073e-09 -1.25031e-08 2.0781e-09 7.730910000000001 5.47488 0.417314 -2.14074e-09 -1.25032e-08 2.07812e-09 2.9055400000000002 0.965183 0.102902 -2.14074e-09 -1.25032e-08 2.07812e-09 10.2786 0.731801 0.0259123 -2.14075e-09 -1.25032e-08 2.07812e-09 2.22167 -0.733487 -0.20892 1.6406e-13 -8.87571e-14 4.61828e-13 -1.3680900000000003 -29.325000000000003 -81.2365 23.8877 -18.8935 -49.253 3.52081 -45.7906 8.30336 1.37132e-09 -3.67227e-09 1.04081e-09 2.3339700000000004e-09 -6.40667e-09 1.84766e-09 1.37131e-09 -3.67227e-09 1.04081e-09 -7.730910000000001 5.47488 -0.417314 1.37131e-09 -3.67225e-09 1.04079e-09 -2.9055400000000002 0.965183 -0.102902 1.37131e-09 -3.67227e-09 1.0408e-09 -10.2786 0.731801 -0.0259123 1.37132e-09 -3.67227e-09 1.04079e-09 -2.22167 -0.733487 0.20892 -2.03217e-16 0.0 -3.88251e-19 -8.99912 -39.9586 -1.98642 -2.33042 71.81 2.83149 -1.62728 -0.54012 -8.8816 2.03217e-16 0.0 3.88251e-19 -6.90508 -20.1865 -4.01675 0.16335200000000002 32.2969 -0.596785 3.38198 -20.2317 7.31572
99.79060000000001 81.6115 -60.536592999999996 187.355 125.71700000000001 191.739 2.34348 -10.6233 -12.7439 4.041610000000001 -1.18332 -3.65958 0.9639760000000002 6.93823 6.60321 -22.9279 0.987702 14.0215 -0.0 0.0 0.0 -0.0 0.0 0.0 1.51416e-13 -1.35181e-13 4.57365e-13 57.0076 10.4142 30.361499999999996 -27.024 -26.405100000000004 61.4539 -0.23529200000000003 -13.7277 -1.96708 -2.08847e-09 -1.21984e-08 2.0514e-09 -3.6253500000000005e-09 -2.11047e-08 3.52921e-09 -2.08846e-09 -1.21983e-08 2.05138e-09 7.730910000000001 5.47488 0.417314 -2.08847e-09 -1.21984e-08 2.05139e-09 2.9055400000000002 0.965183 0.102902 -2.08846e-09 -1.21984e-08 2.05139e-09 10.2786 0.731801 0.0259123 -2.08847e-09 -1.21984e-08 2.05139e-09 2.22167 -0.733487 -0.20892 1.51367e-13 -1.35191e-13 4.57094e-13 4.05084 -30.020000000000003 -78.4534 22.9443 -17.2384 -46.4745 1.9457000000000002 -36.5903 5.97024 1.8538499999999998e-09 -3.78807e-09 1.22093e-09 3.15034e-09 -6.58848e-09 2.16255e-09 1.85384e-09 -3.78807e-09 1.22093e-09 -7.730910000000001 5.47488 -0.417314 1.85384e-09 -3.78805e-09 1.22091e-09 -2.9055400000000002 0.965183 -0.102902 1.85384e-09 -3.78807e-09 1.22093e-09 -10.2786 0.731801 -0.0259123 1.8538499999999998e-09 -3.78807e-09 1.2209200000000002e-09 -2.22167 -0.733487 0.20892 -2.03217e-16 0.0 -3.88251e-19 -7.10479 -43.0932 -1.59867 -1.54439 65.9461 2.02204 -1.74601 -1.69957 -8.46068 2.03217e-16 0.0 3.88251e-19 -6.31924 -17.302 -3.32863 0.106531 28.6072 -0.568181 2.75736 -19.6052 5.87214
101.4546 82.3799 -59.942793 187.286 124.59300000000002 191.633 2.33033 -10.0519 -14.1587 4.54014 -1.1297 -4.0275 1.07267 6.81823 6.97752 -22.891 -0.0346175 14.479900000000002 -0.0 0.0 0.0 -0.0 0.0 0.0 -1.77683e-13 3.47884e-13 -3.82165e-13 56.5908 12.7575 27.6121 -27.4622 -28.0069 63.995000000000005 -0.319243 -15.923100000000002 -2.29734 8.57387e-11 -3.38667e-09 1.64015e-09 1.24753e-10 -5.94441e-09 2.83682e-09 8.57437e-11 -3.38666e-09 1.6401400000000003e-09 7.730910000000001 5.47488 0.417314 8.57259e-11 -3.38669e-09 1.64016e-09 2.9055400000000002 0.965183 0.102902 8.57451e-11 -3.38668e-09 1.64015e-09 10.2786 0.731801 0.0259123 8.57341e-11 -3.38668e-09 1.64015e-09 2.22167 -0.733487 -0.20892 -1.77754e-13 3.47887e-13 -3.82342e-13 9.88792 -30.505 -75.0858 22.1159 -15.9321 -44.109 0.876585 -25.9344 3.9005 1.62229e-09 4.2929e-10 -6.636800000000001e-10 2.80458e-09 6.81844e-10 -1.11419e-09 1.62229e-09 4.29287e-10 -6.636790000000001e-10 -7.730910000000001 5.47488 -0.417314 1.62229e-09 4.2931000000000004e-10 -6.63699e-10 -2.9055400000000002 0.965183 -0.102902 1.62229e-09 4.29289e-10 -6.63681e-10 -10.2786 0.731801 -0.0259123 1.6223e-09 4.2929e-10 -6.6369e-10 -2.22167 -0.733487 0.20892 -2.03217e-16 0.0 -3.88251e-19 -6.01903 -43.9272 -1.18735 -0.886808 56.7555 1.3337000000000003 -1.6293200000000003 -2.8439 -7.06384 2.03217e-16 0.0 3.88251e-19 -5.71555 -14.3394 -2.5367 0.065039 25.0589 -0.550152 2.01269 -18.8195 4.065070000000001
102.90480000000002 82.9309 -59.18409299999999 187.089 124.363 191.715 2.5910900000000003 -9.66195 -15.5959 4.89091 -1.05606 -4.419 1.13468 6.89969 7.287390000000001 -23.034 -0.8912370000000001 14.8835 -0.0 0.0 0.0 -0.0 0.0 0.0 -2.1300900000000002e-13 3.40213e-13 -7.18703e-13 56.0731 14.8246 24.8577 -27.7065 -29.094300000000004 65.853 -0.393703 -17.5421 -2.54645 1.69046e-09 2.5257e-09 1.34715e-09 2.8963900000000006e-09 4.22151e-09 2.3482e-09 1.69046e-09 2.5257e-09 1.34715e-09 7.730910000000001 5.47488 0.417314 1.69045e-09 2.52568e-09 1.34716e-09 2.9055400000000002 0.965183 0.102902 1.69047e-09 2.5257e-09 1.34716e-09 10.2786 0.731801 0.0259123 1.69045e-09 2.5257e-09 1.34716e-09 2.22167 -0.733487 -0.20892 -2.13082e-13 3.40214e-13 -7.18854e-13 14.781 -30.5868 -71.9664 21.2876 -14.7218 -41.9144 0.301927 -15.76 2.28057 1.4470300000000001e-09 1.7681e-09 -1.30665e-09 2.52464e-09 3.00323e-09 -2.2394e-09 1.4470300000000001e-09 1.7680900000000003e-09 -1.30665e-09 -7.730910000000001 5.47488 -0.417314 1.4470300000000001e-09 1.76811e-09 -1.30667e-09 -2.9055400000000002 0.965183 -0.102902 1.4470300000000001e-09 1.7681e-09 -1.30665e-09 -10.2786 0.731801 -0.0259123 1.4470300000000001e-09 1.7681e-09 -1.30666e-09 -2.22167 -0.733487 0.20892 -2.03217e-16 0.0 -3.88251e-19 -5.06552 -43.0294 0.422897 -0.499216 47.0319 0.869266 -1.42561 -1.54198 -7.50563 2.03217e-16 0.0 3.88251e-19 -5.08858 -11.5318 -2.21301 0.0427864 21.8896 -0.497225 1.4514 -18.2 2.67139
104.43739999999998 83.4062 -58.390493 187.158 122.43299999999999 191.815 3.1123 -9.45031 -17.057 5.0944 -0.9624240000000001 -4.83406 1.14703 7.1823500000000005 7.53331 -23.3628 -1.58361 15.2306 -0.0 0.0 0.0 -0.0 0.0 0.0 4.54377e-14 -1.58195e-13 -5.5225e-13 55.4113 16.5777 22.080500000000004 -27.8534 -29.8022 66.9431 -0.443386 -18.5852 -2.70865 2.7257e-09 5.53877e-09 1.17241e-09 4.68957e-09 9.39305e-09 2.06334e-09 2.7257e-09 5.53877e-09 1.17241e-09 7.730910000000001 5.47488 0.417314 2.7256900000000003e-09 5.53876e-09 1.1724e-09 2.9055400000000002 0.965183 0.102902 2.7257e-09 5.53877e-09 1.17241e-09 10.2786 0.731801 0.0259123 2.7256900000000003e-09 5.53877e-09 1.17241e-09 2.22167 -0.733487 -0.20892 4.5382800000000005e-14 -1.58207e-13 -5.52442e-13 18.6839 -30.3541 -69.1912 20.4907 -13.6458 -39.8715 0.010513 -6.09434 0.858229 1.32806e-09 2.28351e-10 -7.07989e-10 2.31053e-09 3.75666e-10 -1.21307e-09 1.32806e-09 2.28353e-10 -7.07984e-10 -7.730910000000001 5.47488 -0.417314 1.32806e-09 2.2836e-10 -7.080040000000001e-10 -2.9055400000000002 0.965183 -0.102902 1.32806e-09 2.28354e-10 -7.07989e-10 -10.2786 0.731801 -0.0259123 1.32806e-09 2.28355e-10 -7.07998e-10 -2.22167 -0.733487 0.20892 -2.03217e-16 0.0 -3.88251e-19 -4.51158 -40.3545 3.05217 -0.278278 36.7761 0.509534 -0.952646 2.1804 -9.8075 2.03217e-16 0.0 3.88251e-19 -4.36668 -8.88388 -2.338 0.0449517 19.0991 -0.41044 1.04528 -17.7582 1.68152
